<svg id="图层_1" data-name="图层 1" xmlns="http://www.w3.org/2000/svg" viewBox="0 0 35 35"><defs><style>.cls-1{fill:#fff;}</style></defs><title>江宁区城市综合执法平台</title><rect class="cls-1" x="9.17" y="9" width="4.83" height="1"/><rect class="cls-1" x="9.17" y="13" width="11.83" height="1"/><rect class="cls-1" x="9.17" y="17" width="11.83" height="1"/><rect class="cls-1" x="9.17" y="21" width="11.83" height="1"/><path class="cls-1" d="M15.36,27.42c-.46,0-1-.67-1.06-.89l.46-.2a1.44,1.44,0,0,0,.59.59l0-.08c.15-.71.34-1.08.62-1.19a.49.49,0,0,1,.45,0,1.56,1.56,0,0,1,.55,1,1.33,1.33,0,0,0,0,.13c.05,0,.13,0,.23-.16l0-.07c.23-.37.44-.71.87-.6a.73.73,0,0,1,.45.37.79.79,0,0,0,.2.23,1.69,1.69,0,0,0,.51.07v.5a1.65,1.65,0,0,1-.81-.17,1.25,1.25,0,0,1-.32-.37c-.08-.12-.1-.15-.15-.16s-.14.08-.33.38l0,.07a.73.73,0,0,1-.67.43.55.55,0,0,1-.45-.36,2,2,0,0,1-.05-.19c-.05-.2-.14-.58-.32-.69,0,0-.16.08-.32.83-.08.38-.31.46-.44.47Z"/><path class="cls-1" d="M24.77,16c-1.35,2.29-2.5,4.45-3.35,6.25l2,1.17c1.16-1.61,2.5-3.66,3.85-6C30.57,11.81,32.7,6.92,32,6.52a.2.2,0,0,0-.11,0C31,6.49,27.95,10.59,24.77,16Z"/><path class="cls-1" d="M25,22.83V29.5H5.83V5.5H25v8.15c.32-.52.65-1,1-1.59V4.5H4.83v26H26V21.33Q25.49,22.11,25,22.83Z"/><path class="cls-1" d="M21.47,25.49a.88.88,0,0,0,.57-.33l-1.52-.9a14.69,14.69,0,0,0-.68,2.11h-.06a.24.24,0,0,0,0,.48h0a.24.24,0,0,0,.19-.28s0,0,0-.07l.56-.47A1.74,1.74,0,0,1,21.47,25.49Z"/><path class="cls-1" d="M22.42,24.68l.62-.81-1.88-1.11c-.15.33-.29.64-.41.94Z"/></svg>