<svg id="图层_1" data-name="图层 1" xmlns="http://www.w3.org/2000/svg" viewBox="0 0 35 35"><defs><style>.cls-1{fill:#fff;}</style></defs><title>江宁区城市综合执法平台</title><rect class="cls-1" x="11.25" y="9" width="4.83" height="1"/><rect class="cls-1" x="11.25" y="11.67" width="11.83" height="1"/><path class="cls-1" d="M17.8,27.24a5.89,5.89,0,1,1,5.89-5.89A5.9,5.9,0,0,1,17.8,27.24Zm0-10.79a4.89,4.89,0,1,0,4.89,4.89A4.9,4.9,0,0,0,17.8,16.45Z"/><rect class="cls-1" x="14.26" y="20.84" width="7.1" height="1" transform="translate(-9.87 18.84) rotate(-45)"/><rect class="cls-1" x="17.31" y="17.79" width="1" height="7.1" transform="translate(-9.87 18.84) rotate(-45)"/><path class="cls-1" d="M6.92,4.5v26H28.08V4.5Zm20.17,9.15V29.5H7.92V5.5H27.08v8.15Z"/></svg>