<svg id="图层_1" data-name="图层 1" xmlns="http://www.w3.org/2000/svg" viewBox="0 0 35 35"><defs><style>.cls-1{fill:#fff;}</style></defs><title>江宁区城市综合执法平台</title><rect class="cls-1" x="11.25" y="9" width="4.83" height="1"/><rect class="cls-1" x="11.25" y="11.67" width="11.83" height="1"/><rect class="cls-1" x="11.25" y="15.61" width="11.83" height="1"/><polygon class="cls-1" points="29.72 20.05 23.17 25.28 19.12 22.54 17.17 24.49 23.18 30.5 23.3 30.38 23.3 30.38 31.67 22 29.72 20.05"/><polygon class="cls-1" points="16.75 29.5 7.92 29.5 7.92 5.5 27.08 5.5 27.08 11.17 27.08 13.65 27.08 17.5 28.08 17.5 28.08 12.07 28.08 11.17 28.08 4.5 6.92 4.5 6.92 30.5 16.75 30.5 16.75 29.5"/></svg>