<svg id="图层_1" data-name="图层 1" xmlns="http://www.w3.org/2000/svg" viewBox="0 0 35 35"><defs><style>.cls-1{fill:#fff;}</style></defs><title>江宁区城市综合执法平台</title><path class="cls-1" d="M12.09,24a2.86,2.86,0,0,0-2.56-.7A3,3,0,0,1,11,24.72a3.58,3.58,0,0,0,.52.93,1.11,1.11,0,0,0,1.33.27c.46-.26.56-.57.92-1.21a7.29,7.29,0,0,1,3.3-3.08A5.66,5.66,0,0,0,12.09,24Z"/><path class="cls-1" d="M28.15,3.41h0a3.82,3.82,0,0,0-5.64,4.54,7.91,7.91,0,0,1-6.11,2.9,7.83,7.83,0,0,1-1-.06c-.73,2.52.62,5.6,3.44,7.38h0a8.06,8.06,0,0,0,4.26,1.27A5.78,5.78,0,0,0,27,18.06a7.91,7.91,0,0,1-.52-7.61,3.82,3.82,0,0,0,1.65-7.05Z"/><path class="cls-1" d="M18.42,18.89h0a8,8,0,0,1-4-7.53,4.49,4.49,0,0,0-.57.73c-1.8,2.87-.43,7,3.06,9.17a8.54,8.54,0,0,0,4.51,1.35A5.84,5.84,0,0,0,26.53,20a4.51,4.51,0,0,0,.41-.83,6.91,6.91,0,0,1-3.82,1.09A8.88,8.88,0,0,1,18.42,18.89Z"/><path class="cls-1" d="M18.43,23.06c0,.15,0,.29,0,.44a5.18,5.18,0,1,1-5.52-5.15l-.13-.26a5.43,5.43,0,1,0,5.9,5.41c0-.11,0-.23,0-.34Z"/><path class="cls-1" d="M20.28,23.52a7,7,0,1,1-8-6.93c0-.16-.07-.33-.1-.49a7.49,7.49,0,1,0,8.59,7.46Z"/><path class="cls-1" d="M12.09,24a2.86,2.86,0,0,0-2.56-.7A3,3,0,0,1,11,24.72a3.58,3.58,0,0,0,.52.93,1.11,1.11,0,0,0,1.33.27c.46-.26.56-.57.92-1.21a7.29,7.29,0,0,1,3.3-3.08A5.66,5.66,0,0,0,12.09,24Z"/><path class="cls-1" d="M28.15,3.41h0a3.82,3.82,0,0,0-5.64,4.54,7.91,7.91,0,0,1-6.11,2.9,7.83,7.83,0,0,1-1-.06c-.73,2.52.62,5.6,3.44,7.38h0a8.06,8.06,0,0,0,4.26,1.27A5.78,5.78,0,0,0,27,18.06a7.91,7.91,0,0,1-.52-7.61,3.82,3.82,0,0,0,1.65-7.05Z"/><path class="cls-1" d="M18.42,18.89h0a8,8,0,0,1-4-7.53,4.49,4.49,0,0,0-.57.73c-1.8,2.87-.43,7,3.06,9.17a8.54,8.54,0,0,0,4.51,1.35A5.84,5.84,0,0,0,26.53,20a4.51,4.51,0,0,0,.41-.83,6.91,6.91,0,0,1-3.82,1.09A8.88,8.88,0,0,1,18.42,18.89Z"/><path class="cls-1" d="M13.94,18.11l.17.29a5.17,5.17,0,0,1,4.08,3.5l.32.12A5.44,5.44,0,0,0,13.94,18.11Z"/><path class="cls-1" d="M18.43,23.06c0,.15,0,.29,0,.44a5.18,5.18,0,1,1-5.52-5.15l-.13-.26a5.43,5.43,0,1,0,5.9,5.41c0-.11,0-.23,0-.34Z"/><path class="cls-1" d="M20.28,23.52a7,7,0,1,1-8-6.93c0-.16-.07-.33-.1-.49a7.49,7.49,0,1,0,8.59,7.46Z"/></svg>