<svg id="图层_1" data-name="图层 1" xmlns="http://www.w3.org/2000/svg" xmlns:xlink="http://www.w3.org/1999/xlink" viewBox="0 0 20 20"><defs><style>.cls-1{stroke:#3d3d3d;stroke-miterlimit:10;fill:url(#未命名的渐变_3);}.cls-2{fill:#3d3d3d;}</style><linearGradient id="未命名的渐变_3" x1="5.82" y1="2.76" x2="14.18" y2="17.24" gradientUnits="userSpaceOnUse"><stop offset="0" stop-color="#fff"/><stop offset="1" stop-color="#bfbfbf"/></linearGradient></defs><title>江宁区城市综合执法平台</title><circle class="cls-1" cx="10" cy="10" r="8.36"/><path class="cls-2" d="M15.95,8.09,13.83,6a.5.5,0,0,0-.71,0L9.25,9.12,7.52,8.06a.5.5,0,0,0-.71,0L4.74,10.13a.5.5,0,0,0,0,.71L9,15.07a.5.5,0,0,0,.71,0l.35-.35L11.75,13l4.2-4.2A.5.5,0,0,0,15.95,8.09Z"/></svg>